<svg xmlns="http://www.w3.org/2000/svg" viewBox="0 0 121 121">
<!-- SVG created with Arrow, by QuiverAI (https://quiver.ai) -->
  <style type="text/css">.cls-0 {fill:#A5B0B3;}
.cls-1 {fill:#072548;}
.cls-2 {fill:#728188;}
.cls-3 {fill:#B6BFBE;}
.cls-4 {fill:#007770;}
.cls-5 {fill:#072648;}
.cls-6 {fill:#6F8791;}</style>
  <path class="cls-1" d="m119.5 1.1v118.8h-118.1v-118.8h118.1m1.3 0zm0-0.2h-120.6v120.3h120.6v-120.3z"/>
  <path class="cls-1" d="m11.8 25.9v81.1h97.2v-81.1h-97.2zm94.9 78.8h-92.7v-76.5h92.7v76.5z"/>
  <path class="cls-4" d="m89.4 43.2h-22.6l-5.8 6.2v33.3h-3v-8.2l-3.1-4.4 2.9-3.3v-17.4l-5.5-6.2h-28.6v41.8h13.6v-12.4h3.1l4.3 6.6v5.8h29.7v-12.4h7.3v12.4h13.7v-35.6l-6-6.2zm-33.7 22.7-3.7 3.8 3.7 5.5v7.4h-8.6v-4.3l-5.4-7.9h-6.8v12.2h-8.9v-37h25.3l4.4 4.8v15.5zm37.5 16.7h-9.1v-12.2h-11.9v12.1h-8.8v-32.1l4.4-4.8h20.7l4.7 4.8v32.2z"/>
  <path class="cls-4" d="m34.9 62.8h12.2v-9.4h-12.2v9.4zm2.4-7.1h7.5v4.8h-7.5v-4.8z"/>
  <path class="cls-4" d="m72.2 53.4v9.4h11.9v-9.4h-11.9zm9.6 7.1h-7.3v-4.8h7.3v4.8z"/>
  <path class="cls-1" d="m20.6 5.7v6.4h7.1v-6.4h-7.1zm6.4 5.8h-5.8v-5.3h5.8v5.3z"/>
  <path class="cls-5" d="m16.6 15.4v-0.8h-4.4l-0.2 0.1v7.9l0.2 0.1h1l0.1-0.2v-3.3h0.7v0.7h0.7v0.7h0.9v0.8h0.8v1.2h1.2v-1.9l-0.2-0.1h-0.9v-0.8h-0.7v-0.4l0.7-0.1v-0.9h0.8v-0.2h0.2l0.2-0.1v-2.6l-0.2-0.1h-0.9zm-0.2 2.7h-3.1v-2.5h3.1v2.5z"/>
  <path class="cls-5" d="m23.3 17.8v-1l-0.2-0.2h-3l-0.2 0.2v1h-0.9l-0.2 0.1v3.5l0.2 0.2h0.9v0.9l0.1 0.2h3.1l0.1-0.2v-1l-0.2-0.2h-2.9v-1.1h4l0.2-0.2v-2l-0.2-0.2h-0.8zm-0.3 1.1h-2.9v-0.7h2.9v0.7z"/>
  <path class="cls-5" d="m27.8 14.5h-1.1v2.1h-1.2l-0.2 0.2v1l0.2 0.2h1v3.4l0.2 0.2h0.9v0.9l0.2 0.2h1.7l0.2-0.2v-1l-0.2-0.2h-1.6l-0.1-3.3 1.7-0.1v-1.1l-0.2-0.2h-1.5v-2.1z"/>
  <path class="cls-5" d="m33 16.8-0.1 1h-0.9l-0.1-1h-1.1l-0.1 0.1v5.6l0.2 0.1h1l0.1-0.1v-3.3l1-0.2 0.1-0.1-0.1-0.9h2.3l0.2-0.2v-1l-0.2-0.2h-2.2l-0.1 0.2z"/>
  <path class="cls-5" d="m41.1 17.8v-1l-0.2-0.2h-3.3l-0.1 0.2v1h-0.9l-0.2 0.1v3.5l0.2 0.2h0.9v0.9l0.2 0.2h3.3l0.2-0.2v-0.9h0.9l0.1-0.2v-3.4l-0.1-0.2h-1zm-0.2 3.4h-3.2v-3.1h3.2v3.1z"/>
  <path class="cls-5" d="m48 15.5v-0.9l-0.2-0.2h-3.2l-0.2 0.2v0.9h-0.9l-0.1 0.1v6.9l0.2 0.1h0.9l0.1-0.1v-3.2h3.2v3.1l0.2 0.2h0.9l0.2-0.2v-6.7l-0.2-0.2h-0.9zm-0.2 2.6h-3.3v-2.5h3.3v2.5z"/>
  <path class="cls-5" d="m56.1 17.8v-0.9l-0.2-0.2h-1.7l-0.2 0.2v0.9h-0.7l-0.1-0.9-0.2-0.2h-2.6l-0.2 0.2v5.6l0.2 0.2h1l0.1-0.2v-4.5h1.5l0.1 4.5 0.2 0.2h0.9l0.1-0.2v-4.5h1.5l0.1 4.5 0.2 0.1h0.9l0.1-0.1v-4.5l-0.1-0.2h-0.9z"/>
  <path class="cls-5" d="m62.6 17.8v-0.9l-0.2-0.2h-3.9l-0.2 0.2v7.8l0.2 0.1h0.9l0.2-0.1v-2.2h2.8l0.2-0.1v-0.9h0.9l0.1-0.2v-3.4l-0.1-0.1h-0.9zm-0.2 3.5h-2.9v-3.3h2.9v3.3z"/>
  <rect class="cls-2" x="21.4" y="6.4" width="5.3" height="5.3"/>
  <polygon class="cls-3" points="21.4 6.4 21.4 11.1 22 10.6 26.3 10.6 26.8 10.1 26.8 6.9 26.8 6.4"/>
  <polygon class="cls-6" points="13.2 9.3 13.2 11.5 18.5 11.5 18.6 9.3"/>
  <polygon class="cls-1" points="17.8 9.3 17.8 11.1 12.6 11.1 12.6 12.1 18.8 12.1 18.9 9.3"/>
  <polygon class="cls-3" points="12.6 9.3 12.6 11.5 13.4 11.1 13.4 9.3"/>
  <polygon class="cls-5" points="13.5 9.8 13.5 10.7 17.6 10.7 17.6 9.8"/>
  <polygon class="cls-1" points="25.5 7.4 24.5 8.4 23 7.4 22.4 8 23.7 9.1 22.5 10.2 23 10.7 24.3 9.5 25.6 10.6 25.9 10.1 24.9 9 26 8"/>
  <polygon class="cls-3" points="25.2 7.4 25.7 7.9 26.1 7.5 25.6 7"/>
</svg>